<svg width="75" height="75" viewBox="0 0 75 75" fill="none" xmlns="http://www.w3.org/2000/svg">
<circle cx="37.5" cy="37.5" r="31.5" fill="#FAF2D7"/>
<path d="M32.3306 21.9798C33.3254 23.3986 33.3543 24.8116 32.3653 26.248C31.9431 26.8611 32.2959 26.9837 32.8396 26.9837C33.001 26.9827 33.1627 26.9812 33.3245 26.9798C34.0551 26.9733 34.7882 26.9667 35.5174 26.9954C35.6067 26.9981 35.7114 26.9865 35.8198 26.9745C36.1751 26.935 36.5697 26.8912 36.5874 27.3341C36.6057 27.8187 36.1867 27.778 35.8218 27.7425C35.7251 27.7331 35.6321 27.7241 35.5521 27.7253C34.7071 27.7415 33.862 27.7397 33.0169 27.7379C32.3409 27.7365 31.6648 27.735 30.9888 27.7428C30.0171 27.7545 29.9535 27.8713 30.4451 28.6712M32.3306 21.9798L37.4781 17.0342C37.9813 16.8765 37.9928 17.2969 37.9986 17.6356C38.0102 18.5698 38.0218 19.504 37.9986 20.4383C37.9813 21.0338 38.2184 21.3024 38.8141 21.2732C39.0997 21.2577 39.3878 21.2629 39.675 21.2681C39.8183 21.2706 39.9614 21.2732 40.1039 21.2732M32.3306 21.9798C32.0183 21.536 32.1802 21.3024 32.7008 21.3024M32.3306 21.9798L32.7008 21.3024M30.4451 28.6712C31.6655 30.6506 31.6655 32.6183 30.4451 34.6036C29.9477 35.4094 30.0113 35.5203 30.9772 35.532M30.4451 28.6712L30.8707 28.4088C31.5207 29.463 31.8604 30.5395 31.8604 31.6352C31.8604 32.7308 31.5208 33.8085 30.8711 34.8654L30.8706 34.8662C30.8341 34.9253 30.8019 34.9787 30.7737 35.027L32.838 26.4837C32.9963 26.4827 33.1556 26.4813 33.3157 26.4798C34.046 26.4733 34.7929 26.4666 35.5344 26.4957C35.586 26.4971 35.6571 26.4894 35.7875 26.475C35.8986 26.4627 36.0573 26.4452 36.2121 26.453C36.3631 26.4606 36.5865 26.4947 36.7787 26.6503C36.9909 26.8221 37.0771 27.0675 37.087 27.3141L37.0871 27.3152C37.0962 27.5588 37.037 27.8157 36.8394 28.0098C36.6549 28.191 36.4258 28.2402 36.2691 28.2551C36.1097 28.2704 35.9471 28.2566 35.8315 28.2457C35.8075 28.2435 35.7855 28.2414 35.7651 28.2394C35.6692 28.2302 35.6101 28.2245 35.5607 28.2252C34.7197 28.2413 33.8582 28.2396 33.003 28.2379C32.3251 28.2366 31.6512 28.2352 30.9948 28.2428C30.9122 28.2438 30.8392 28.2455 30.7746 28.2483C30.8026 28.2967 30.8347 28.3501 30.8711 28.4094L30.4451 28.6712ZM30.9772 35.532C32.3004 35.546 33.6199 35.5451 34.9416 35.5441C35.2722 35.5439 35.6029 35.5437 35.9338 35.5437C36.6221 35.5437 36.7262 35.9699 36.732 36.5363C36.7378 37.126 36.6048 37.4939 35.9107 37.4822M30.9772 35.532L30.9833 35.032C30.983 35.032 30.9828 35.032 30.9825 35.032L30.9772 35.532ZM35.9107 37.4822C35.1698 37.4711 34.4303 37.4732 33.6908 37.4753C32.8773 37.4776 32.064 37.48 31.2491 37.4647C30.3526 37.4472 29.7106 37.0443 29.6007 36.075C29.5371 35.4969 29.2653 35.2692 28.6927 35.2867C27.7037 35.3159 26.7089 35.3101 25.7198 35.2867C25.1126 35.2692 24.8523 35.4269 25.0836 36.0984M35.9107 37.4822L35.9032 37.9821C35.9029 37.9821 35.9026 37.9821 35.9023 37.9821C35.1663 37.9711 34.4311 37.9732 33.6907 37.9753L33.5813 37.9756C32.8053 37.9778 32.0237 37.9793 31.2397 37.9646L31.2393 37.9646C30.7248 37.9545 30.2214 37.8333 29.8217 37.5205C29.4109 37.1989 29.171 36.7231 29.1039 36.1313L29.1037 36.1297C29.0785 35.9004 29.0222 35.8458 29.0113 35.8364C28.9995 35.8263 28.9366 35.7795 28.708 35.7865L28.7074 35.7865C27.7069 35.8161 26.7027 35.8101 25.708 35.7866L25.7054 35.7865C25.6245 35.7842 25.5618 35.7859 25.5138 35.7899C25.5222 35.8271 25.5355 35.8747 25.556 35.9343M35.9107 37.4822L49.3474 35.7871M25.0836 36.0984C25.3488 36.8556 25.5979 37.6191 25.847 38.3825C26.1356 39.2673 26.4242 40.1519 26.7378 41.0264C27.2005 42.3285 28.1779 43 29.5487 43H43.5278C44.5573 43 45.4075 42.5913 45.9859 41.7388C46.8257 40.5032 47.6508 39.2552 48.4755 38.0077C48.9174 37.3393 49.3592 36.671 49.8031 36.0049C50.1097 35.5495 50.1039 35.2867 49.4561 35.2867M25.0836 36.0984L25.5564 35.9355C25.5562 35.9351 25.5561 35.9347 25.556 35.9343M25.0836 36.0984L25.5555 35.9331C25.5557 35.9335 25.5558 35.9339 25.556 35.9343M49.4561 35.2867C48.4652 35.2906 47.4742 35.2893 46.4833 35.288C45.9878 35.2874 45.4924 35.2867 44.9969 35.2867C44.54 35.2867 44.2739 35.4327 44.2045 35.9524M49.4561 35.2867L49.4574 35.6154C49.4599 35.611 49.4623 35.6066 49.4647 35.6024C49.4839 35.5674 49.4945 35.5433 49.4998 35.5288C49.5053 35.5136 49.5022 35.5168 49.5007 35.5346C49.499 35.554 49.499 35.5942 49.517 35.6443C49.5259 35.669 49.5382 35.6931 49.5535 35.7154C49.5688 35.7376 49.5853 35.7554 49.601 35.7692C49.6165 35.7828 49.6301 35.7916 49.6395 35.797C49.6462 35.8007 49.6511 35.8029 49.6534 35.8039C49.6544 35.8043 49.6549 35.8045 49.6551 35.8045C49.6553 35.8046 49.6541 35.8042 49.6513 35.8034C49.6494 35.8028 49.6467 35.8021 49.6431 35.8013C49.6344 35.7993 49.6218 35.7969 49.6046 35.7947C49.5738 35.7906 49.5327 35.7876 49.4792 35.7869C49.4781 35.7869 49.477 35.7869 49.4759 35.7868C49.4698 35.7868 49.4635 35.7867 49.4571 35.7867C49.4205 35.7869 49.384 35.787 49.3474 35.7871M49.4561 35.2867V35.6177C49.4383 35.6488 49.4159 35.6847 49.3883 35.7257L49.3871 35.7277C49.3739 35.7475 49.3606 35.7673 49.3474 35.7871M44.2045 35.9524C44.0657 37.0501 43.3254 37.453 42.319 37.4647C41.8571 37.4695 41.3941 37.4674 40.931 37.4652C40.2693 37.4622 39.6072 37.4592 38.9472 37.4763M44.2045 35.9524L44.7001 36.0186C44.7002 36.0181 44.7003 36.0176 44.7003 36.0171M44.2045 35.9524L44.7006 36.0151C44.7005 36.0158 44.7004 36.0164 44.7003 36.0171M38.9472 37.4763C38.282 37.4939 37.9871 37.272 37.9871 36.5596C37.9813 35.859 38.1779 35.5028 38.9356 35.5261C39.5601 35.5428 40.1828 35.5366 40.8058 35.5304C41.2731 35.5258 41.7406 35.5211 42.2092 35.5261C42.8396 35.532 43.256 35.2751 43.5452 34.697C44.5053 32.7877 44.5863 30.8842 43.7303 28.9106C43.3485 28.0231 42.7991 27.6319 41.8274 27.7078C40.9944 27.7712 40.1518 27.7437 39.3127 27.7162C39.2255 27.7134 39.1384 27.7105 39.0513 27.7078C38.9793 27.7054 38.8968 27.7115 38.8111 27.7179C38.477 27.7426 38.0959 27.7709 38.1143 27.3107C38.131 26.9134 38.4509 26.9383 38.7601 26.9625C38.878 26.9717 38.9943 26.9807 39.0917 26.9662C39.2469 26.9421 39.4074 26.9484 39.5678 26.9547C39.6407 26.9575 39.7135 26.9604 39.7858 26.9604C41.5093 26.9545 41.8101 26.6976 42.1976 25.016C42.3769 24.2394 42.3017 23.492 42.0761 22.7505C41.6944 21.4834 41.411 21.2791 40.1039 21.2732M38.9472 37.4763L38.9603 37.9762M38.9472 37.4763L38.9603 37.9762M40.1039 21.2732L40.1017 21.7732C40.102 21.7732 40.1024 21.7732 40.1027 21.7732M40.1039 21.2732V21.7732C40.1035 21.7732 40.1031 21.7732 40.1027 21.7732M40.1027 21.7732C39.9405 21.7732 39.7882 21.7704 39.6413 21.7677C39.3662 21.7626 39.1098 21.7578 38.8414 21.7725L38.8386 21.7726L38.8386 21.7726C38.477 21.7904 38.0916 21.7254 37.8147 21.4351C37.5458 21.1532 37.4888 20.7712 37.4988 20.4247C37.5216 19.5021 37.5103 18.5779 37.4987 17.643L38.9602 37.9762C38.5947 37.9858 38.1868 37.9388 37.8817 37.662C37.5683 37.3777 37.4873 36.9668 37.4871 36.5617C37.4842 36.1935 37.5267 35.7719 37.7892 35.4534C38.0757 35.1057 38.5054 35.0128 38.9499 35.0263C39.5751 35.043 40.1728 35.0368 40.7811 35.0306C41.2469 35.0257 41.7188 35.0209 42.2138 35.0262C42.4587 35.0284 42.6216 34.98 42.7417 34.9055C42.8627 34.8306 42.9833 34.7026 43.098 34.4733L43.0985 34.4724C43.9941 32.6913 44.0667 30.9429 43.2716 29.1095L43.2709 29.1081C43.1022 28.7158 42.9216 28.4932 42.7276 28.3671C42.5389 28.2445 42.2775 28.1741 41.8664 28.2063L41.8654 28.2063C41.0036 28.272 40.1335 28.2434 39.2986 28.216C39.2105 28.2132 39.1228 28.2103 39.0355 28.2075L39.0347 28.2075C38.9918 28.2061 38.9428 28.2096 38.8616 28.2156C38.8394 28.2172 38.8149 28.219 38.7875 28.2209C38.6815 28.2283 38.5279 28.2374 38.3762 28.2173C38.2244 28.1972 38.0071 28.1397 37.8358 27.9562C37.6568 27.7644 37.6055 27.5198 37.6147 27.2907L37.6147 27.2897C37.6245 27.0572 37.7029 26.8176 37.9084 26.6475C38.0955 26.4927 38.3127 26.4608 38.4517 26.4531C38.5763 26.4462 38.7086 26.4567 38.7997 26.464C38.8109 26.4649 38.8216 26.4657 38.8315 26.4665C38.9438 26.4751 38.9926 26.4752 39.0169 26.4718C39.1735 26.4477 39.3237 26.4472 39.4491 26.4503C39.5093 26.4518 39.5582 26.4538 39.6028 26.4556C39.6657 26.4582 39.72 26.4604 39.785 26.4604C40.6697 26.4573 40.9947 26.3768 41.1776 26.2284C41.3634 26.0776 41.5106 25.7706 41.7104 24.9037L41.7104 24.9035C41.8655 24.2319 41.8044 23.5754 41.5978 22.896L41.5974 22.8947C41.4032 22.2502 41.2724 22.0398 41.1382 21.9398C41.0041 21.8398 40.768 21.7763 40.1027 21.7732ZM38.9603 37.9762C39.6181 37.9591 40.2615 37.9621 40.9132 37.9652C41.3767 37.9674 41.8443 37.9696 42.3242 37.9646L42.3248 37.9646C42.8849 37.9581 43.4382 37.8433 43.8818 37.5198C44.3404 37.1852 44.6166 36.6755 44.7003 36.0171M38.9603 37.9762L49.3474 35.7871M44.7003 36.0171C44.7128 35.9247 44.7309 35.8728 44.7437 35.8463C44.7498 35.8337 44.7545 35.8273 44.7564 35.8248C44.7583 35.8225 44.7592 35.8218 44.7596 35.8215C44.7611 35.8204 44.8067 35.7867 44.9969 35.7867C45.4909 35.7867 45.9857 35.7874 46.4809 35.788C47.4357 35.7893 48.392 35.7905 49.3474 35.7871M49.3474 35.7871C48.9147 36.4368 48.485 37.0867 48.0558 37.736C47.2323 38.9815 46.4106 40.2245 45.5724 41.4577L45.5721 41.4581C45.0951 42.1612 44.4069 42.5 43.5278 42.5H43.5005H43.4732H43.4459H43.4186H43.3913H43.3639H43.3366H43.3093H43.282H43.2547H43.2274H43.2001H43.1727H43.1454H43.1181H43.0908H43.0635H43.0362H43.0089H42.9815H42.9542H42.9269H42.8996H42.8723H42.845H42.8177H42.7903H42.763H42.7357H42.7084H42.6811H42.6538H42.6265H42.5991H42.5718H42.5445H42.5172H42.4899H42.4626H42.4353H42.4079H42.3806H42.3533H42.326H42.2987H42.2714H42.2441H42.2167H42.1894H42.1621H42.1348H42.1075H42.0802H42.0529H42.0256H41.9982H41.9709H41.9436H41.9163H41.889H41.8617H41.8344H41.807H41.7797H41.7524H41.7251H41.6978H41.6705H41.6432H41.6158H41.5885H41.5612H41.5339H41.5066H41.4793H41.452H41.4246H41.3973H41.37H41.3427H41.3154H41.2881H41.2608H41.2335H41.2061H41.1788H41.1515H41.1242H41.0969H41.0696H41.0423H41.0149H40.9876H40.9603H40.933H40.9057H40.8784H40.8511H40.8238H40.7964H40.7691H40.7418H40.7145H40.6872H40.6599H40.6326H40.6052H40.5779H40.5506H40.5233H40.496H40.4687H40.4414H40.4141H40.3867H40.3594H40.3321H40.3048H40.2775H40.2502H40.2229H40.1956H40.1682H40.1409H40.1136H40.0863H40.059H40.0317H40.0044H39.9771H39.9497H39.9224H39.8951H39.8678H39.8405H39.8132H39.7859H39.7586H39.7313H39.7039H39.6766H39.6493H39.622H39.5947H39.5674H39.5401H39.5128H39.4854H39.4581H39.4308H39.4035H39.3762H39.3489H39.3216H39.2943H39.267H39.2396H39.2123H39.185H39.1577H39.1304H39.1031H39.0758H39.0485H39.0212H38.9938H38.9665H38.9392H38.9119H38.8846H38.8573H38.83H38.8027H38.7754H38.748H38.7207H38.6934H38.6661H38.6388H38.6115H38.5842H38.5569H38.5296H38.5023H38.4749H38.4476H38.4203H38.393H38.3657H38.3384H38.3111H38.2838H38.2565H38.2292H38.2018H38.1745H38.1472H38.1199H38.0926H38.0653H38.038H38.0107H37.9834H37.9561H37.9288H37.9014H37.8741H37.8468H37.8195H37.7922H37.7649H37.7376H37.7103H37.683H37.6557H37.6284H37.6011H37.5737H37.5464H37.5191H37.4918H37.4645H37.4372H37.4099H37.3826H37.3553H37.328H37.3007H37.2734H37.246H37.2187H37.1914H37.1641H37.1368H37.1095H37.0822H37.0549H37.0276H37.0003H36.973H36.9457H36.9184H36.8911H36.8638H36.8364H36.8091H36.7818H36.7545H36.7272H36.6999H36.6726H36.6453H36.618H36.5907H36.5634H36.5361H36.5088H36.4815H36.4542H36.4269H36.3995H36.3722H36.3449H36.3176H36.2903H36.263H36.2357H36.2084H36.1811H36.1538H36.1265H36.0992H36.0719H36.0446H36.0173H35.99H35.9627H35.9354H35.9081H35.8808H35.8534H35.8261H35.7988H35.7715H35.7442H35.7169H35.6896H35.6623H35.635H35.6077H35.5804H35.5531H35.5258H35.4985H35.4712H35.4439H35.4166H35.3893H35.362H35.3347H35.3074H35.2801H35.2528H35.2255H35.1982H35.1709H35.1436H35.1163H35.089H35.0617H35.0344H35.0071H34.9798H34.9525H34.9251H34.8978H34.8705H34.8432H34.8159H34.7886H34.7613H34.734H34.7067H34.6794H34.6521H34.6248H34.5975H34.5702H34.5429H34.5156H34.4883H34.461H34.4337H34.4064H34.3791H34.3518H34.3245H34.2972H34.2699H34.2426H34.2153H34.188H34.1607H34.1334H34.1061H34.0788H34.0515H34.0242H33.9969H33.9696H33.9423H33.915H33.8878H33.8605H33.8332H33.8059H33.7786H33.7513H33.724H33.6967H33.6694H33.6421H33.6148H33.5875H33.5602H33.5329H33.5056H33.4783H33.451H33.4237H33.3964H33.3691H33.3418H33.3145H33.2872H33.2599H33.2326H33.2053H33.178H33.1507H33.1234H33.0961H33.0688H33.0415H33.0143H32.987H32.9597H32.9324H32.9051H32.8778H32.8505H32.8232H32.7959H32.7686H32.7413H32.714H32.6867H32.6594H32.6321H32.6048H32.5775H32.5503H32.523H32.4957H32.4684H32.4411H32.4138H32.3865H32.3592H32.3319H32.3046H32.2773H32.25H32.2227H32.1954H32.1682H32.1409H32.1136H32.0863H32.059H32.0317H32.0044H31.9771H31.9498H31.9225H31.8952H31.8679H31.8407H31.8134H31.7861H31.7588H31.7315H31.7042H31.6769H31.6496H31.6223H31.595H31.5678H31.5405H31.5132H31.4859H31.4586H31.4313H31.404H31.3767H31.3494H31.3222H31.2949H31.2676H31.2403H31.213H31.1857H31.1584H31.1311H31.1038H31.0766H31.0493H31.022H30.9947H30.9674H30.9401H30.9128H30.8856H30.8583H30.831H30.8037H30.7764H30.7491H30.7218H30.6945H30.6673H30.64H30.6127H30.5854H30.5581H30.5308H30.5035H30.4763H30.449H30.4217H30.3944H30.3671H30.3398H30.3126H30.2853H30.258H30.2307H30.2034H30.1761H30.1489H30.1216H30.0943H30.067H30.0397H30.0124H29.9852H29.9579H29.9306H29.9033H29.876H29.8487H29.8215H29.7942H29.7669H29.7396H29.7123H29.6851H29.6578H29.6305H29.6032H29.5759H29.5487C28.9463 42.5 28.464 42.3534 28.0889 42.0915C27.7145 41.8301 27.4114 41.4289 27.2089 40.859L27.2084 40.8577C26.9191 40.0507 26.6507 39.2338 26.3817 38.4094C26.3618 38.3485 26.3419 38.2875 26.322 38.2264C26.0734 37.4645 25.8229 36.6964 25.556 35.9343M32.7008 21.3024C33.7592 21.3024 34.8176 21.3024 35.876 21.2908L32.7008 21.3024Z" fill="#1533D0" stroke="#1533D0"/>
<circle cx="37.5" cy="37.5" r="37" stroke="#FEF9E9"/>
<path d="M28.556 47.2L26.036 48.726V50.014L27.842 48.964V57H28.99V47.2H28.556ZM34.2762 47.088C31.9942 47.088 30.8322 49.048 30.8322 52.1C30.8322 55.152 31.9942 57.112 34.2762 57.112C36.5582 57.112 37.7202 55.152 37.7202 52.1C37.7202 49.048 36.5582 47.088 34.2762 47.088ZM34.2762 48.208C35.7742 48.208 36.4882 49.706 36.4882 52.1C36.4882 54.494 35.7742 55.992 34.2762 55.992C32.7782 55.992 32.0642 54.494 32.0642 52.1C32.0642 49.706 32.7782 48.208 34.2762 48.208ZM42.9305 47.088C40.6485 47.088 39.4865 49.048 39.4865 52.1C39.4865 55.152 40.6485 57.112 42.9305 57.112C45.2125 57.112 46.3745 55.152 46.3745 52.1C46.3745 49.048 45.2125 47.088 42.9305 47.088ZM42.9305 48.208C44.4285 48.208 45.1425 49.706 45.1425 52.1C45.1425 54.494 44.4285 55.992 42.9305 55.992C41.4325 55.992 40.7185 54.494 40.7185 52.1C40.7185 49.706 41.4325 48.208 42.9305 48.208Z" fill="#1533D0"/>
</svg>
